<svg width="21" height="25" viewBox="0 0 21 25" fill="none" xmlns="http://www.w3.org/2000/svg">
<path d="M20.0659 0.388019L19.7852 0.107257C19.6888 0.0109192 19.5469 -0.023944 19.4168 0.0166809C17.3359 0.667853 15.9008 2.11536 15.0633 3.21502C14.7406 3.63875 14.4701 4.05877 14.2517 4.43997C13.5771 4.29837 12.8769 4.28104 12.1879 4.39817C11.2727 4.55384 10.6313 5.36771 10.6658 6.27239C10.2622 6.48582 9.8894 6.76375 9.5559 7.10286C8.89521 7.77459 8.33588 9.0576 8.28246 10.0239C8.20737 11.3835 7.52065 18.3866 1.36108 22.7493C0.848871 23.1121 0.685736 23.7316 0.95517 24.2908C1.17055 24.7379 1.60248 25 2.07573 25C2.19726 25 2.32158 24.9826 2.44555 24.9468C6.92163 23.6512 10.145 21.0358 12.0608 19.0698C14.4573 16.6105 16.1964 13.7408 16.8322 11.1966C17.0963 10.1393 16.9558 9.0284 16.4365 8.06839C15.8212 6.93084 14.7419 6.13128 13.4752 5.87469C12.78 5.73387 12.0806 5.76487 11.4235 5.96121C11.5192 5.54036 11.8595 5.197 12.3106 5.12024C13.6424 4.89378 15.0235 5.24505 16.0998 6.08377C16.3407 6.27142 16.4893 6.54217 16.5183 6.84622C16.5363 7.03572 16.6958 7.17767 16.8824 7.17767C16.894 7.17767 16.9058 7.17708 16.9176 7.17596C17.1189 7.15672 17.2665 6.97791 17.2474 6.77659C17.1997 6.27728 16.9455 5.81414 16.55 5.50599C16.0709 5.1327 15.5391 4.84378 14.9784 4.64446C15.744 3.3639 17.1936 1.56321 19.4268 0.784796L19.548 0.906036C19.691 1.04901 19.9229 1.04901 20.0659 0.906036C20.2089 0.762921 20.2089 0.531036 20.0659 0.388019Z" fill="#ED0000"/>
</svg>
