<svg width="31" height="31" viewBox="0 0 31 31" fill="none" xmlns="http://www.w3.org/2000/svg">
<g clip-path="url(#clip0)">
<path d="M2.51095 6.82058C2.85779 8.65321 3.89829 9.47983 5.26481 10.0391C7.09525 10.839 8.8216 11.8645 10.4049 13.0923C13.8524 15.6531 17.13 15.5546 20.5151 12.8778C22.1324 11.5541 23.5744 10.0243 24.8054 8.32608C25.7725 7.08324 26.2562 5.52374 26.165 3.94324C27.5523 5.77587 27.9998 7.51705 27.7813 9.413C27.3997 12.7441 25.9847 15.4772 23.2377 17.4822C18.1115 21.2249 12.3402 22.15 6.24288 21.7033C5.2489 21.6681 4.25943 21.5505 3.28439 21.3515C2.15024 21.0771 1.28663 20.7887 1.28663 20.7887C1.03881 20.2695 0.817696 19.7377 0.624176 19.1953C-0.669514 14.8757 0.0900522 10.9044 2.51095 6.82058Z" fill="white"/>
<path d="M16.0339 5.38331e-05C17.715 0.0545418 19.3721 0.419289 20.9243 1.07642C22.7451 1.8749 23.3798 3.06382 22.8214 4.97384C22.4505 6.3801 21.7274 7.66519 20.7222 8.70433C19.7171 9.74348 18.464 10.5014 17.0848 10.9044C16.4832 11.0994 15.8478 11.1632 15.2202 11.0917C14.5926 11.0202 13.987 10.8149 13.443 10.4893C11.4973 9.3602 9.54464 8.23459 7.63012 7.03512C6.24278 6.16277 6.20116 5.6281 7.23126 4.30199C8.26878 2.9414 9.60429 1.84437 11.1321 1.09771C12.6599 0.351051 14.3381 -0.0247473 16.0339 5.38331e-05Z" fill="#C0340E"/>
<path d="M16.1797 25.4846C16.4086 24.5806 16.8907 23.8208 16.7242 22.8887C16.6947 22.7774 16.6553 22.669 16.6063 22.5651C16.6063 22.5651 17.2479 22.3751 17.4838 22.3223C19.7212 21.7929 21.8496 20.869 23.7719 19.5927C27.2645 17.2958 29.1582 14.0984 29.1339 9.814C29.1339 9.42004 29.1651 9.02608 29.1894 8.63211V8.12207C29.1894 8.12207 29.3663 8.39644 29.4183 8.47382C31.2149 12.7582 31.6519 17.0144 29.8484 21.3445C28.579 24.3836 26.446 26.7333 23.7753 28.5624C23.3453 28.8579 23.0297 29.1182 22.7869 28.5202C21.788 26.0756 19.6896 25.4565 17.2375 25.4952C16.7554 25.5057 16.5612 25.4987 16.1797 25.4846Z" fill="white"/>
<path d="M3.971 29.7232C4.50859 29.2941 4.97335 28.9282 5.54909 28.4252C5.83003 28.1825 6.24276 27.7956 6.24276 27.7956L5.54909 27.2222C4.06811 25.9841 2.92009 24.461 1.76514 22.6143L4.44616 23.1208C6.79739 23.5174 9.1917 23.5789 11.5597 23.3037C12.2044 23.227 12.8529 23.1871 13.502 23.1841C14.5737 23.1841 14.9899 23.8524 14.7575 24.8479C14.5293 25.6197 14.2537 26.3763 13.9321 27.1132C15.1703 27.1343 16.3391 26.7122 17.5565 26.8107C18.9928 26.8861 20.3464 27.5153 21.3404 28.5694C21.937 29.1991 21.9613 29.593 21.0422 29.9307C17.716 31.1478 14.2997 31.3799 10.984 30.2262C8.86135 29.484 6.85666 29.5579 4.75831 29.8744C4.50859 29.9131 3.86001 30.0011 3.60682 30.0257C3.81492 29.8674 3.75249 29.9167 3.971 29.7232Z" fill="white"/>
</g>
<defs>
<clipPath id="clip0">
<rect width="31" height="31" fill="white"/>
</clipPath>
</defs>
</svg>
